<svg xmlns="http://www.w3.org/2000/svg" width="1080" height="190" viewBox="0 0 1080 190">
  <defs>
    <linearGradient id="footerFadeLight" x1="0" y1="0" x2="0" y2="1">
      <stop offset="0" stop-color="#FFFFFF" stop-opacity="0"/>
      <stop offset="0.6" stop-color="#FFFFFF" stop-opacity="0.78"/>
      <stop offset="1" stop-color="#FFFFFF" stop-opacity="0.95"/>
    </linearGradient>
  </defs>

  <rect width="1080" height="190" fill="url(#footerFadeLight)"/>

  <image href="xalqsigorta-logo-official.svg" x="52" y="52" width="286" height="67" preserveAspectRatio="xMinYMid meet"/>

  <text x="52" y="132" fill="#2B2A29" opacity="0.9"
        font-family="Segoe UI, Arial, sans-serif" font-size="11">
    *“Xalq Sığorta” ASC Azərbaycan Respublikası Maliyyə Nazirliyinin 29 Aprel 2010-cu il tarixli 000333 saylı lisenziyası əsasında fəaliyyət göstərir.
  </text>
  <text x="52" y="148" fill="#2B2A29" opacity="0.9"
        font-family="Segoe UI, Arial, sans-serif" font-size="11">
    Ünvan: Bakı şəhəri, Akademik Həsən Əliyev küçəsi 24.
  </text>

  <g transform="translate(746 67)" fill="#E30613">
    <path d="M12.2 3.5c2.2-1.6 5.3-1.2 7 .8l3.7 5c1.4 1.9 1.2 4.5-.5 6.2l-2 2c3.6 5.9 8.4 10.7 14.3 14.3l2-2c1.7-1.7 4.3-1.9 6.2-.5l5 3.7c2 1.5 2.5 4.6.8 7-2.2 3.2-5.9 5.1-9.8 5.1C19.3 45.1 3 28.8 3 9.2c0-3.9 1.9-7.5 5.2-9.7l4 4z" transform="scale(0.58) translate(0 0)"/>
    <text x="34" y="28" font-family="Segoe UI, Arial, sans-serif" font-weight="700" font-size="29">183</text>
    <line x1="112" y1="-5" x2="112" y2="35" stroke="#E30613" stroke-width="3"/>
    <text x="132" y="28" font-family="Segoe UI, Arial, sans-serif" font-weight="700" font-size="29">xalqsigorta.az</text>
  </g>
</svg>
